<?xml version="1.0" standalone="no"?>
<!DOCTYPE svg PUBLIC "-//W3C//DTD SVG 20010904//EN"
 "http://www.w3.org/TR/2001/REC-SVG-20010904/DTD/svg10.dtd">
<svg version="1.0" xmlns="http://www.w3.org/2000/svg"
 width="800.000000pt" height="800.000000pt" viewBox="0 0 800.000000 800.000000"
 preserveAspectRatio="xMidYMid meet">
<metadata>
Created by potrace 1.11, written by Peter Selinger 2001-2013
</metadata>
<g transform="translate(0.000000,800.000000) scale(0.100000,-0.100000)"
fill="#000000" stroke="none">
<path d="M0 4082 l0 -2798 470 0 470 0 1 25 c0 14 0 621 1 1349 l0 1323 34
-51 c19 -29 34 -56 34 -61 0 -5 5 -9 10 -9 6 0 10 -5 10 -10 0 -6 22 -44 50
-85 27 -41 50 -77 50 -80 0 -3 5 -11 10 -18 13 -15 175 -269 231 -362 23 -38
45 -72 49 -75 4 -3 17 -24 30 -48 13 -23 27 -42 32 -42 4 0 8 -9 8 -20 0 -11
4 -20 8 -20 4 0 24 -27 43 -60 18 -33 37 -60 42 -60 4 0 7 -5 7 -10 0 -6 28
-54 63 -108 85 -131 180 -279 192 -300 18 -31 79 -127 85 -132 3 -3 14 -22 25
-43 11 -20 23 -37 27 -37 5 0 8 -5 8 -10 0 -6 24 -47 54 -93 29 -45 73 -113
98 -152 24 -38 66 -105 94 -148 27 -42 54 -85 59 -94 6 -9 25 -39 43 -65 17
-26 32 -50 32 -53 0 -3 27 -46 60 -96 33 -50 60 -94 60 -99 0 -5 4 -10 8 -12
4 -2 19 -21 32 -43 13 -22 52 -84 87 -138 35 -53 63 -102 63 -107 0 -11 2 -12
47 -16 25 -2 34 3 45 24 7 15 44 73 81 130 37 56 67 107 67 111 0 5 4 11 8 13
7 3 94 139 324 506 37 58 72 113 77 122 35 49 102 158 107 173 4 9 10 17 15
17 5 0 9 5 9 11 0 6 10 25 22 42 13 18 28 41 34 52 10 18 114 183 209 330 102
158 295 467 295 471 0 3 5 10 11 17 11 13 193 296 216 337 8 14 22 37 31 51
97 152 128 202 137 219 5 11 13 20 17 20 5 0 8 4 8 9 0 12 52 91 59 91 3 0 5
-595 4 -1322 -1 -728 0 -1332 2 -1344 4 -20 8 -20 472 -20 l468 1 0 2794 c0
2360 -2 2794 -14 2799 -7 3 -18 -2 -22 -11 -5 -9 -15 -22 -22 -29 -7 -7 -24
-31 -37 -53 -41 -65 -43 -69 -85 -131 -22 -32 -42 -63 -45 -69 -13 -25 -126
-190 -133 -193 -4 -2 -7 -8 -7 -14 0 -5 -29 -52 -65 -104 -36 -52 -65 -96 -65
-98 0 -2 -47 -75 -105 -162 -58 -87 -105 -161 -105 -166 0 -4 -4 -8 -10 -8 -5
0 -10 -4 -10 -9 0 -10 -80 -135 -102 -161 -7 -9 -26 -38 -42 -65 -16 -27 -34
-54 -38 -60 -5 -5 -43 -62 -83 -125 -41 -63 -78 -120 -83 -126 -5 -5 -15 -21
-22 -34 -7 -13 -17 -29 -22 -34 -17 -20 -200 -301 -206 -316 -3 -8 -9 -17 -12
-20 -4 -3 -66 -95 -138 -205 -72 -110 -135 -205 -141 -212 -6 -7 -11 -14 -11
-17 0 -2 -19 -32 -42 -66 -24 -35 -49 -74 -57 -89 -7 -14 -21 -35 -31 -46 -10
-11 -19 -24 -21 -30 -2 -5 -58 -91 -123 -190 -266 -402 -311 -470 -315 -480
-2 -5 -7 -12 -10 -15 -4 -3 -35 -50 -70 -105 -35 -55 -68 -102 -72 -103 -5 -2
-9 -8 -9 -14 0 -6 -20 -39 -45 -75 -25 -35 -45 -65 -45 -67 0 -4 -226 -347
-243 -369 -13 -16 -22 -5 -98 110 -46 71 -86 133 -88 138 -2 6 -7 12 -10 15
-3 3 -40 57 -81 120 -41 63 -78 117 -82 118 -5 2 -8 7 -8 12 0 5 -67 109 -149
232 -81 123 -154 235 -161 248 -7 14 -18 30 -24 37 -29 32 -36 43 -31 43 3 0
1 6 -5 13 -22 24 -200 298 -200 307 0 4 -3 10 -8 12 -4 2 -25 30 -47 63 -21
33 -87 133 -147 223 -59 89 -108 167 -108 172 0 6 -3 10 -8 10 -4 0 -18 20
-32 45 -14 25 -27 45 -31 45 -3 0 -11 11 -17 25 -7 14 -17 31 -22 38 -6 7 -34
48 -62 92 -29 44 -54 82 -57 85 -8 6 -29 41 -38 60 -4 8 -11 20 -16 25 -13 15
-257 387 -257 392 0 2 -5 9 -11 16 -6 7 -90 134 -188 282 -98 149 -231 351
-297 450 -65 99 -124 190 -130 202 -7 12 -17 28 -24 35 -6 7 -69 102 -140 211
-74 111 -137 197 -145 197 -13 0 -15 -316 -15 -2798z"/>
<path d="M7055 2793 c-118 -16 -281 -81 -366 -145 -62 -47 -155 -145 -194
-203 -22 -33 -40 -62 -40 -65 0 -3 -6 -15 -14 -28 -18 -34 -62 -152 -56 -152
3 0 1 -8 -4 -17 -8 -16 -24 -140 -24 -188 1 -37 14 -140 24 -180 18 -72 61
-184 82 -210 4 -5 21 -31 37 -56 88 -136 252 -258 415 -309 103 -32 101 -31
223 -35 235 -6 437 75 598 242 45 47 134 165 134 179 0 3 11 30 25 61 32 70
57 170 61 249 2 34 4 66 6 70 5 21 -15 155 -33 217 -22 74 -86 206 -121 250
-64 79 -194 197 -217 197 -6 0 -11 4 -11 8 0 5 -30 22 -67 39 -89 40 -111 48
-203 70 -24 5 -222 10 -255 6z"/>
</g>
</svg>
